<svg width="120" height="32" viewBox="0 0 120 32" fill="none" xmlns="http://www.w3.org/2000/svg">
<path d="M0.38561 15.7049C-0.128913 15.9488 -0.128429 16.6795 0.386417 16.9227L7.99079 20.5154C8.34855 20.6845 8.48464 21.1227 8.28529 21.4639L4.98174 27.118C4.67495 27.6431 5.1667 28.2731 5.75217 28.1051L16.197 25.1075C16.502 25.02 16.8268 25.1559 16.9779 25.4343L20.0642 31.1205C20.3254 31.6017 21.0221 31.5882 21.2644 31.0973L25.3312 22.8565C25.438 22.6401 25.6527 22.4971 25.894 22.4817L32.9093 22.0322C33.4594 21.997 33.7379 21.3546 33.3869 20.9305L28.9756 15.6013C28.8172 15.41 28.777 15.1472 28.8711 14.9174L32.0898 7.05452C32.3041 6.53119 31.8162 5.99311 31.2728 6.15343L24.8151 8.0587L24.3559 10.2517L28.0072 9.01891C28.5553 8.83385 29.0677 9.37706 28.8493 9.91166L26.8021 14.923C26.7094 15.1498 26.7474 15.409 26.9013 15.5998L30.1303 19.6043C30.4859 20.0453 30.1712 20.7007 29.6039 20.7007H24.7429C24.5031 20.7007 24.2814 20.8274 24.1601 21.0337L20.9861 26.4342C20.7218 26.8841 20.0674 26.8768 19.8131 26.4212L18.4684 24.0116L18.0158 23.0138C17.8823 22.7194 17.5581 22.561 17.2431 22.6362L16.1646 22.8937L10.1905 24.6428C9.59984 24.8158 9.10401 24.1748 9.42148 23.6486L10.4477 21.9477L11.2434 20.6588C11.4556 20.315 11.3193 19.8635 10.952 19.6938L9.59447 19.0667L5.13377 16.9194C4.62531 16.6746 4.62423 15.9525 5.13196 15.7063L10.7037 13.0037L11.8738 12.4702C12.216 12.3141 12.3645 11.9093 12.2041 11.5698L11.6423 10.3807L9.60657 5.66798C9.3618 5.10133 9.94568 4.53167 10.5081 4.78843L16.1646 7.37071L17.2641 7.83732C17.5658 7.96536 17.9161 7.8588 18.0949 7.58462L18.767 6.55371L19.927 4.61465C20.1911 4.17306 20.8338 4.17743 21.0919 4.62257L24.3559 10.2517L24.8151 8.0587L21.3377 0.396036C21.1147 -0.0953638 20.4322 -0.139304 20.1478 0.319424L17.2894 4.92889C17.11 5.21831 16.7424 5.32884 16.4325 5.18656L6.59377 0.669487C6.03037 0.410822 5.44459 0.982792 5.69173 1.55027L9.63285 10.6001C9.77799 10.9333 9.63217 11.3214 9.30319 11.4774L0.38561 15.7049ZM13.7766 15.1479C13.0759 15.3232 13.1028 16.3255 13.8119 16.4632L15.6465 16.8193C16.1061 16.9085 16.3375 17.4258 16.0972 17.8267L15.2507 19.239C14.9086 19.8096 15.5138 20.4773 16.1172 20.1951L18.6532 19.0091C19.0551 18.8211 19.5265 19.0645 19.6049 19.5004L20.0182 21.8001C20.1436 22.4978 21.1251 22.5542 21.33 21.8755L22.1485 19.165C22.2413 18.8577 22.5384 18.6583 22.8587 18.6884L25.2283 18.9112C25.8316 18.968 26.1989 18.2648 25.8066 17.804L23.9904 15.6704C23.7983 15.4447 23.7763 15.1202 23.9364 14.8708L25.6098 12.2633C25.9545 11.7261 25.4277 11.056 24.8226 11.262L23.5246 11.7039C23.2154 11.8092 22.8751 11.6786 22.7162 11.3939L21.4659 9.15359C21.1751 8.63267 20.3994 8.71722 20.2283 9.28848L19.585 11.4364C19.4544 11.8723 18.9373 12.0566 18.5594 11.8018L15.5604 9.7799C14.96 9.3751 14.2288 10.0693 14.6044 10.6876L16.3728 13.5988C16.6085 13.9867 16.4004 14.4914 15.9594 14.6018L13.7766 15.1479Z" fill="url(#paint0_radial_228_18)"/>
<path d="M56.3562 2.03662V14.8004H52.7567V4.89935H47.8717V14.8004H44.2905V2.03662H56.3562Z" fill="#2A2E34"/>
<path d="M71.3169 2.03662L65.9911 11.9012C65.428 12.9588 64.7362 13.7611 63.9159 14.3081C63.1079 14.8551 62.2202 15.1286 61.253 15.1286C60.5429 15.1286 59.7838 14.9706 58.9758 14.6545L59.8389 11.9924C60.3409 12.1382 60.7694 12.2112 61.1245 12.2112C61.4795 12.2112 61.7917 12.1322 62.0611 11.9741C62.3427 11.8161 62.5998 11.5669 62.8324 11.2265L57.8372 2.03662H61.6754L64.6689 8.1997L67.7725 2.03662H71.3169Z" fill="#2A2E34"/>
<path d="M89.9116 2.03662V14.8004H72.4834V2.03662H76.0645V11.9377H79.4253V2.03662H83.0064V11.9377H86.3305V2.03662H89.9116Z" fill="#2A2E34"/>
<path d="M97.8568 9.91369H96.204V14.8004H92.5861V2.03662H96.204V6.99626H97.9486L101.016 2.03662H104.835L100.814 8.1997L104.872 14.8004H100.777L97.8568 9.91369Z" fill="#2A2E34"/>
<path d="M114.604 12.3206H109.168L108.158 14.8004H104.448L110.123 2.03662H113.704L119.397 14.8004H115.614L114.604 12.3206ZM113.539 9.65842L111.886 5.57401L110.233 9.65842H113.539Z" fill="#2A2E34"/>
<path d="M44.1768 26.4666H44.7938V25.7834C44.9745 26.0368 45.2035 26.2373 45.4809 26.3851C45.7582 26.5299 46.0808 26.6023 46.4485 26.6023C46.9221 26.6023 47.3257 26.4892 47.6591 26.263C47.9925 26.0338 48.2465 25.7246 48.421 25.3355C48.5986 24.9465 48.6875 24.5076 48.6875 24.019C48.6875 23.5334 48.5986 23.0961 48.421 22.707C48.2465 22.318 47.9941 22.0103 47.6638 21.7841C47.3335 21.5579 46.9377 21.4448 46.4765 21.4448C46.1275 21.4448 45.8174 21.5082 45.5463 21.6348C45.2783 21.7585 45.0524 21.9319 44.8686 22.1551V19.9519H44.1768V26.4666ZM46.3784 25.9825C46.02 25.9825 45.724 25.898 45.4902 25.7291C45.2565 25.5572 45.082 25.3235 44.9667 25.0279C44.8514 24.7323 44.7938 24.396 44.7938 24.019C44.7938 23.443 44.9231 22.974 45.1817 22.612C45.4435 22.2471 45.8377 22.0646 46.3643 22.0646C46.7258 22.0646 47.0234 22.1506 47.2571 22.3225C47.494 22.4944 47.67 22.7282 47.7853 23.0237C47.9006 23.3193 47.9583 23.6511 47.9583 24.019C47.9583 24.39 47.8991 24.7233 47.7806 25.0189C47.6653 25.3144 47.4908 25.5497 47.2571 25.7246C47.0234 25.8965 46.7305 25.9825 46.3784 25.9825Z" fill="#2A2E34"/>
<path d="M50.9351 28.6381H51.6223L54.3334 21.5806H53.6322L52.1037 25.5979L50.4443 21.5806H49.7151L51.7672 26.453L50.9351 28.6381Z" fill="#2A2E34"/>
<path d="M59.8774 26.4666H60.5879L62.4203 21.5806H61.7144L60.2327 25.5979L58.7416 21.5806H58.0451L59.8774 26.4666Z" fill="#2A2E34"/>
<path d="M65.9613 26.6023C66.4506 26.6023 66.8884 26.4862 67.2748 26.2539C67.6643 26.0217 67.9588 25.6914 68.1583 25.2632L67.5179 25.0234C67.1969 25.6507 66.6687 25.9644 65.9333 25.9644C65.4285 25.9644 65.0327 25.8121 64.746 25.5075C64.4624 25.2028 64.3066 24.77 64.2786 24.209H68.2564C68.2813 23.3465 68.0866 22.6709 67.6721 22.1823C67.2608 21.6906 66.6812 21.4448 65.9333 21.4448C65.4472 21.4448 65.0249 21.5504 64.6666 21.7615C64.3113 21.9726 64.0355 22.2727 63.8392 22.6618C63.6429 23.0509 63.5447 23.5123 63.5447 24.0462C63.5447 24.5619 63.6429 25.0113 63.8392 25.3943C64.0386 25.7774 64.3191 26.0745 64.6806 26.2856C65.0452 26.4967 65.4721 26.6023 65.9613 26.6023ZM65.952 22.0556C66.9024 22.0556 67.4306 22.5879 67.5366 23.6526H64.2926C64.3456 23.1368 64.5139 22.7417 64.7974 22.4673C65.081 22.1928 65.4659 22.0556 65.952 22.0556Z" fill="#2A2E34"/>
<path d="M70.0416 26.4666H70.7288V24.0281C70.7288 23.7355 70.763 23.4445 70.8316 23.1549C70.9033 22.8624 71.0653 22.6196 71.3177 22.4266C71.5016 22.2818 71.701 22.1988 71.916 22.1777C72.1342 22.1536 72.3367 22.1627 72.5237 22.2049V21.5806C72.3024 21.5263 72.0516 21.5248 71.7711 21.576C71.4907 21.6243 71.2507 21.7329 71.0513 21.9018C70.9017 22.0103 70.7708 22.1611 70.6586 22.3542V21.5806H70.0416V26.4666Z" fill="#2A2E34"/>
<path d="M74.1536 26.4666H74.8454V23.8607C74.8454 23.3087 74.9732 22.8759 75.2287 22.5623C75.4842 22.2486 75.8551 22.0918 76.3412 22.0918C76.6933 22.0918 76.9769 22.1747 77.1919 22.3406C77.4069 22.5035 77.5628 22.7267 77.6594 23.0102C77.756 23.2937 77.8043 23.6149 77.8043 23.9738V26.4666H78.4961V23.7793C78.4961 23.5048 78.4602 23.2303 78.3885 22.9559C78.32 22.6814 78.2078 22.4311 78.052 22.2049C77.8962 21.9787 77.689 21.7977 77.4303 21.662C77.1717 21.5263 76.8523 21.4584 76.4721 21.4584C76.1106 21.4584 75.7834 21.5263 75.4905 21.662C75.2007 21.7947 74.9623 21.9938 74.7753 22.2592V21.5806H74.1536V26.4666Z" fill="#2A2E34"/>
<path d="M82.5285 26.6023C83.0271 26.6023 83.454 26.4937 83.8093 26.2765C84.1676 26.0594 84.4419 25.7578 84.6319 25.3717C84.8252 24.9827 84.9218 24.5318 84.9218 24.019C84.9218 23.5153 84.8267 23.0705 84.6366 22.6844C84.4496 22.2954 84.177 21.9922 83.8186 21.7751C83.4634 21.5549 83.0333 21.4448 82.5285 21.4448C82.0362 21.4448 81.6108 21.5534 81.2524 21.7706C80.8972 21.9847 80.623 22.2848 80.4298 22.6709C80.2365 23.0569 80.1399 23.5063 80.1399 24.019C80.1399 24.5227 80.2334 24.9691 80.4204 25.3582C80.6105 25.7472 80.8832 26.0518 81.2384 26.272C81.5968 26.4922 82.0268 26.6023 82.5285 26.6023ZM82.5285 25.9644C81.9832 25.9644 81.5703 25.7879 81.2898 25.4351C81.0094 25.0792 80.8691 24.6072 80.8691 24.019C80.8691 23.449 81.0047 22.9845 81.2758 22.6256C81.5469 22.2637 81.9645 22.0827 82.5285 22.0827C83.0863 22.0827 83.5023 22.2592 83.7766 22.612C84.0539 22.9619 84.1926 23.4309 84.1926 24.019C84.1926 24.5951 84.0554 25.0641 83.7812 25.426C83.507 25.7849 83.0894 25.9644 82.5285 25.9644Z" fill="#2A2E34"/>
<path d="M86.6491 26.4666H87.4484V25.6929H86.6491V26.4666Z" fill="#2A2E34"/>
<path d="M91.5983 26.6023C91.966 26.6023 92.2885 26.5299 92.5658 26.3851C92.8432 26.2373 93.0722 26.0368 93.253 25.7834V26.4666H93.87V19.9519H93.1782V22.1551C92.9943 21.9319 92.7668 21.7585 92.4957 21.6348C92.2277 21.5082 91.9192 21.4448 91.5702 21.4448C91.109 21.4448 90.7133 21.5579 90.3829 21.7841C90.0526 22.0103 89.7987 22.318 89.621 22.707C89.4465 23.0961 89.3593 23.5334 89.3593 24.019C89.3593 24.5076 89.4465 24.9465 89.621 25.3355C89.7987 25.7246 90.0542 26.0338 90.3876 26.263C90.7242 26.4892 91.1277 26.6023 91.5983 26.6023ZM91.6684 25.9825C91.3194 25.9825 91.0264 25.8965 90.7896 25.7246C90.5559 25.5497 90.3798 25.3144 90.2614 25.0189C90.1461 24.7233 90.0885 24.39 90.0885 24.019C90.0885 23.6511 90.1461 23.3193 90.2614 23.0237C90.3767 22.7282 90.5512 22.4944 90.7849 22.3225C91.0218 22.1506 91.3209 22.0646 91.6824 22.0646C92.209 22.0646 92.6017 22.2471 92.8603 22.612C93.1221 22.974 93.253 23.443 93.253 24.019C93.253 24.396 93.1953 24.7323 93.08 25.0279C92.9647 25.3235 92.7902 25.5572 92.5565 25.7291C92.3228 25.898 92.0267 25.9825 91.6684 25.9825Z" fill="#2A2E34"/>
<path d="M96.0227 20.6531H96.7098V19.9066H96.0227V20.6531ZM96.0227 26.4666H96.7098V21.5806H96.0227V26.4666Z" fill="#2A2E34"/>
<path d="M100.818 26.6023C101.157 26.6023 101.46 26.5389 101.724 26.4123C101.989 26.2856 102.212 26.1107 102.393 25.8875V26.3896C102.396 26.9627 102.279 27.3955 102.042 27.6881C101.805 27.9806 101.413 28.1269 100.864 28.1269C100.599 28.1269 100.339 28.0666 100.084 27.9459C99.8282 27.8283 99.6319 27.6338 99.4948 27.3623L98.8731 27.6971C99.0881 28.0771 99.3763 28.3516 99.7378 28.5205C100.102 28.6894 100.478 28.7738 100.864 28.7738C101.481 28.7738 101.974 28.6441 102.341 28.3848C102.709 28.1254 102.938 27.7227 103.029 27.1768C103.05 27.0532 103.064 26.9265 103.071 26.7968C103.08 26.6701 103.085 26.5374 103.085 26.3987V21.5806H102.472V22.2546C102.288 22.0013 102.055 21.8037 101.771 21.662C101.491 21.5172 101.163 21.4448 100.79 21.4448C100.328 21.4448 99.9326 21.5579 99.6023 21.7841C99.2719 22.0103 99.018 22.318 98.8404 22.707C98.6659 23.0961 98.5786 23.5334 98.5786 24.019C98.5786 24.5076 98.6659 24.9465 98.8404 25.3355C99.018 25.7246 99.2735 26.0338 99.6069 26.263C99.9435 26.4892 100.347 26.6023 100.818 26.6023ZM100.888 25.9825C100.539 25.9825 100.246 25.8965 100.009 25.7246C99.7752 25.5497 99.5992 25.3144 99.4807 25.0189C99.3654 24.7233 99.3078 24.39 99.3078 24.019C99.3078 23.6511 99.3654 23.3193 99.4807 23.0237C99.596 22.7282 99.7705 22.4944 100.004 22.3225C100.241 22.1506 100.54 22.0646 100.902 22.0646C101.428 22.0646 101.821 22.2471 102.08 22.612C102.341 22.974 102.472 23.443 102.472 24.019C102.472 24.396 102.415 24.7323 102.299 25.0279C102.184 25.3235 102.01 25.5572 101.776 25.7291C101.542 25.898 101.246 25.9825 100.888 25.9825Z" fill="#2A2E34"/>
<path d="M105.233 20.6531H105.92V19.9066H105.233V20.6531ZM105.233 26.4666H105.92V21.5806H105.233V26.4666Z" fill="#2A2E34"/>
<path d="M110.818 26.4666V25.8829C110.456 25.9403 110.152 25.9493 109.906 25.9101C109.663 25.8709 109.486 25.7502 109.373 25.5482C109.314 25.4426 109.281 25.322 109.275 25.1862C109.272 25.0475 109.271 24.8756 109.271 24.6705V22.1506H110.818V21.5806H109.271V20.2233H108.588V21.5806H107.508V22.1506H108.588V24.6976C108.588 24.9359 108.591 25.1485 108.597 25.3355C108.607 25.5225 108.657 25.705 108.747 25.8829C108.859 26.1001 109.023 26.26 109.238 26.3625C109.456 26.465 109.702 26.5224 109.976 26.5344C110.254 26.5465 110.534 26.5239 110.818 26.4666Z" fill="#2A2E34"/>
<path d="M114.005 26.6023C114.886 26.6023 115.527 26.2871 115.926 25.6567V26.4666H116.538V23.4309C116.538 23.2499 116.529 23.072 116.51 22.8971C116.491 22.7221 116.451 22.5638 116.388 22.422C116.254 22.1053 116.025 21.8641 115.701 21.6982C115.38 21.5293 114.989 21.4448 114.528 21.4448C113.973 21.4448 113.522 21.5655 113.173 21.8068C112.824 22.048 112.59 22.3873 112.471 22.8247L113.14 23.0147C113.236 22.689 113.403 22.4507 113.64 22.2999C113.88 22.1491 114.173 22.0737 114.519 22.0737C114.999 22.0737 115.341 22.1823 115.547 22.3994C115.753 22.6135 115.859 22.9408 115.865 23.3811C115.641 23.4113 115.393 23.443 115.122 23.4761C114.854 23.5093 114.584 23.547 114.313 23.5892C114.042 23.6315 113.793 23.6797 113.565 23.734C113.188 23.8305 112.88 23.9919 112.64 24.2181C112.4 24.4413 112.28 24.7534 112.28 25.1546C112.28 25.414 112.344 25.6537 112.471 25.8739C112.599 26.0941 112.791 26.2705 113.046 26.4032C113.305 26.5359 113.624 26.6023 114.005 26.6023ZM114.084 26.0277C113.813 26.0277 113.595 25.9855 113.43 25.901C113.268 25.8136 113.149 25.7035 113.074 25.5708C113.003 25.4351 112.967 25.2963 112.967 25.1546C112.967 24.8892 113.059 24.6901 113.243 24.5574C113.427 24.4247 113.626 24.3282 113.841 24.2679C114.118 24.1955 114.441 24.1367 114.809 24.0914C115.176 24.0462 115.525 24.0039 115.856 23.9647C115.856 24.0763 115.851 24.2045 115.842 24.3493C115.835 24.491 115.818 24.6222 115.79 24.7429C115.725 25.1108 115.544 25.417 115.248 25.6613C114.955 25.9056 114.567 26.0277 114.084 26.0277Z" fill="#2A2E34"/>
<path d="M118.596 26.4666H119.283V19.8162H118.596V26.4666Z" fill="#2A2E34"/>
<defs>
<radialGradient id="paint0_radial_228_18" cx="0" cy="0" r="1" gradientUnits="userSpaceOnUse" gradientTransform="translate(21.0547 15.0811) rotate(8.51074) scale(20.4927 19.2664)">
<stop stop-color="#FF421D"/>
<stop offset="1" stop-color="#FBBF00"/>
</radialGradient>
</defs>
</svg>
