<svg width="469" height="171" viewBox="0 0 469 171" fill="none" xmlns="http://www.w3.org/2000/svg">
<g filter="url(#filter0_b_228_50)">
<path fill-rule="evenodd" clip-rule="evenodd" d="M29 0C12.9837 0 0 12.9837 0 29V107.823C0 123.839 12.9838 136.823 29 136.823H31.597L51.0599 170.533L70.5228 136.823H439.964C455.98 136.823 468.964 123.839 468.964 107.823V29C468.964 12.9837 455.98 0 439.964 0H29Z" fill="#F0F0F0" fill-opacity="0.85"/>
<path d="M67.1767 51.0112C68.1887 51.2872 68.9784 51.7702 69.5457 52.4602C70.113 53.1349 70.3967 53.9476 70.3967 54.8982C70.3967 55.8489 70.09 56.6846 69.4767 57.4052C68.8787 58.1106 68.0737 58.6549 67.0617 59.0382C66.065 59.4062 64.9764 59.5902 63.7957 59.5902C62.7224 59.5902 61.6567 59.4292 60.5987 59.1072C59.5407 58.7852 58.5747 58.3022 57.7007 57.6582L58.5057 55.9562C59.211 56.5082 60.0007 56.9222 60.8747 57.1982C61.7487 57.4742 62.6304 57.6122 63.5197 57.6122C64.8077 57.6122 65.8887 57.3439 66.7627 56.8072C67.6367 56.2552 68.0737 55.5039 68.0737 54.5532C68.0737 53.7406 67.744 53.1196 67.0847 52.6902C66.4254 52.2456 65.4977 52.0232 64.3017 52.0232H60.7137V50.1602H64.1407C65.168 50.1602 65.9654 49.9532 66.5327 49.5392C67.1154 49.1099 67.4067 48.5196 67.4067 47.7682C67.4067 46.9249 67.031 46.2579 66.2797 45.7672C65.5284 45.2766 64.5777 45.0312 63.4277 45.0312C62.6764 45.0312 61.9097 45.1386 61.1277 45.3532C60.361 45.5679 59.6327 45.8899 58.9427 46.3192L58.2067 44.4332C59.0194 43.9732 59.878 43.6282 60.7827 43.3982C61.6874 43.1682 62.592 43.0532 63.4967 43.0532C64.6314 43.0532 65.674 43.2296 66.6247 43.5822C67.5754 43.9349 68.3267 44.4486 68.8787 45.1232C69.446 45.7979 69.7297 46.5876 69.7297 47.4922C69.7297 48.3049 69.4997 49.0179 69.0397 49.6312C68.595 50.2446 67.974 50.7046 67.1767 51.0112Z" fill="black"/>
<path d="M78.2075 47.1012C79.8942 47.1012 81.1822 47.5152 82.0715 48.3432C82.9762 49.1712 83.4285 50.4056 83.4285 52.0462V59.4062H81.3355V57.7962C80.9675 58.3636 80.4385 58.8006 79.7485 59.1072C79.0739 59.3986 78.2689 59.5442 77.3335 59.5442C75.9689 59.5442 74.8725 59.2146 74.0445 58.5552C73.2319 57.8959 72.8255 57.0296 72.8255 55.9562C72.8255 54.8829 73.2165 54.0242 73.9985 53.3802C74.7805 52.7209 76.0225 52.3912 77.7245 52.3912H81.2205V51.9542C81.2205 51.0036 80.9445 50.2752 80.3925 49.7692C79.8405 49.2632 79.0279 49.0102 77.9545 49.0102C77.2339 49.0102 76.5285 49.1329 75.8385 49.3782C75.1485 49.6082 74.5659 49.9226 74.0905 50.3212L73.1705 48.6652C73.7992 48.1592 74.5505 47.7759 75.4245 47.5152C76.2985 47.2392 77.2262 47.1012 78.2075 47.1012ZM77.7015 57.8422C78.5449 57.8422 79.2732 57.6582 79.8865 57.2902C80.4999 56.9069 80.9445 56.3702 81.2205 55.6802V53.9782H77.8165C75.9459 53.9782 75.0105 54.6069 75.0105 55.8642C75.0105 56.4776 75.2482 56.9606 75.7235 57.3132C76.1989 57.6659 76.8582 57.8422 77.7015 57.8422Z" fill="black"/>
<path d="M98.6975 47.2162V59.4062H96.4895V49.1482H89.6125V59.4062H87.4045V47.2162H98.6975Z" fill="black"/>
<path d="M113.849 47.2162L107.938 60.6252C107.417 61.8672 106.803 62.7412 106.098 63.2472C105.408 63.7532 104.572 64.0062 103.591 64.0062C102.993 64.0062 102.41 63.9066 101.843 63.7072C101.291 63.5232 100.831 63.2472 100.463 62.8792L101.406 61.2232C102.035 61.8212 102.763 62.1202 103.591 62.1202C104.128 62.1202 104.572 61.9746 104.925 61.6832C105.293 61.4072 105.623 60.9242 105.914 60.2342L106.305 59.3832L100.923 47.2162H103.223L107.478 56.9682L111.687 47.2162H113.849Z" fill="black"/>
<path d="M121.086 59.5442C119.844 59.5442 118.732 59.2759 117.751 58.7392C116.785 58.2026 116.026 57.4666 115.474 56.5312C114.922 55.5806 114.646 54.5072 114.646 53.3112C114.646 52.1152 114.922 51.0496 115.474 50.1142C116.026 49.1636 116.785 48.4276 117.751 47.9062C118.732 47.3696 119.844 47.1012 121.086 47.1012C122.19 47.1012 123.171 47.3236 124.03 47.7682C124.904 48.2129 125.578 48.8569 126.054 49.7002L124.375 50.7812C123.991 50.1986 123.516 49.7616 122.949 49.4702C122.381 49.1789 121.753 49.0332 121.063 49.0332C120.265 49.0332 119.545 49.2096 118.901 49.5622C118.272 49.9149 117.774 50.4209 117.406 51.0802C117.053 51.7242 116.877 52.4679 116.877 53.3112C116.877 54.1699 117.053 54.9289 117.406 55.5882C117.774 56.2322 118.272 56.7306 118.901 57.0832C119.545 57.4359 120.265 57.6122 121.063 57.6122C121.753 57.6122 122.381 57.4666 122.949 57.1752C123.516 56.8839 123.991 56.4469 124.375 55.8642L126.054 56.9222C125.578 57.7656 124.904 58.4172 124.03 58.8772C123.171 59.3219 122.19 59.5442 121.086 59.5442Z" fill="black"/>
<path d="M133.65 54.2542H131.12V59.4062H128.912V47.2162H131.12V52.3682H133.696L137.652 47.2162H140.021L135.398 53.0812L140.343 59.4062H137.744L133.65 54.2542Z" fill="black"/>
<path d="M146.781 47.1012C148.467 47.1012 149.755 47.5152 150.645 48.3432C151.549 49.1712 152.002 50.4056 152.002 52.0462V59.4062H149.909V57.7962C149.541 58.3636 149.012 58.8006 148.322 59.1072C147.647 59.3986 146.842 59.5442 145.907 59.5442C144.542 59.5442 143.446 59.2146 142.618 58.5552C141.805 57.8959 141.399 57.0296 141.399 55.9562C141.399 54.8829 141.79 54.0242 142.572 53.3802C143.354 52.7209 144.596 52.3912 146.298 52.3912H149.794V51.9542C149.794 51.0036 149.518 50.2752 148.966 49.7692C148.414 49.2632 147.601 49.0102 146.528 49.0102C145.807 49.0102 145.102 49.1329 144.412 49.3782C143.722 49.6082 143.139 49.9226 142.664 50.3212L141.744 48.6652C142.372 48.1592 143.124 47.7759 143.998 47.5152C144.872 47.2392 145.799 47.1012 146.781 47.1012ZM146.275 57.8422C147.118 57.8422 147.846 57.6582 148.46 57.2902C149.073 56.9069 149.518 56.3702 149.794 55.6802V53.9782H146.39C144.519 53.9782 143.584 54.6069 143.584 55.8642C143.584 56.4776 143.821 56.9606 144.297 57.3132C144.772 57.6659 145.431 57.8422 146.275 57.8422Z" fill="black"/>
<path d="M166.995 53.3802C166.995 53.5489 166.979 53.7712 166.949 54.0472H157.059C157.197 55.1206 157.664 55.9869 158.462 56.6462C159.274 57.2902 160.279 57.6122 161.475 57.6122C162.931 57.6122 164.104 57.1216 164.994 56.1402L166.213 57.5662C165.661 58.2102 164.971 58.7009 164.143 59.0382C163.33 59.3756 162.418 59.5442 161.406 59.5442C160.118 59.5442 158.975 59.2836 157.979 58.7622C156.982 58.2256 156.208 57.4819 155.656 56.5312C155.119 55.5806 154.851 54.5072 154.851 53.3112C154.851 52.1306 155.111 51.0649 155.633 50.1142C156.169 49.1636 156.898 48.4276 157.818 47.9062C158.753 47.3696 159.803 47.1012 160.969 47.1012C162.134 47.1012 163.169 47.3696 164.074 47.9062C164.994 48.4276 165.707 49.1636 166.213 50.1142C166.734 51.0649 166.995 52.1536 166.995 53.3802ZM160.969 48.9642C159.911 48.9642 159.021 49.2862 158.301 49.9302C157.595 50.5742 157.181 51.4176 157.059 52.4602H164.879C164.756 51.4329 164.334 50.5972 163.614 49.9532C162.908 49.2939 162.027 48.9642 160.969 48.9642Z" fill="black"/>
<path d="M184.473 47.2162V59.4062H182.472V50.5052L177.918 58.0262H176.952L172.444 50.4822V59.4062H170.42V47.2162H172.697L177.481 55.4502L182.403 47.2162H184.473Z" fill="black"/>
<path d="M206.24 47.2162V59.4062H204.032V49.1482H197.155V59.4062H194.947V47.2162H206.24Z" fill="black"/>
<path d="M216.976 47.1012C218.157 47.1012 219.215 47.3619 220.15 47.8832C221.085 48.4046 221.814 49.1329 222.335 50.0682C222.872 51.0036 223.14 52.0846 223.14 53.3112C223.14 54.5379 222.872 55.6266 222.335 56.5772C221.814 57.5126 221.085 58.2409 220.15 58.7622C219.215 59.2836 218.157 59.5442 216.976 59.5442C216.102 59.5442 215.297 59.3756 214.561 59.0382C213.84 58.7009 213.227 58.2102 212.721 57.5662V63.8682H210.513V47.2162H212.629V49.1482C213.12 48.4736 213.741 47.9676 214.492 47.6302C215.243 47.2776 216.071 47.1012 216.976 47.1012ZM216.792 57.6122C217.574 57.6122 218.272 57.4359 218.885 57.0832C219.514 56.7152 220.004 56.2092 220.357 55.5652C220.725 54.9059 220.909 54.1546 220.909 53.3112C220.909 52.4679 220.725 51.7242 220.357 51.0802C220.004 50.4209 219.514 49.9149 218.885 49.5622C218.272 49.2096 217.574 49.0332 216.792 49.0332C216.025 49.0332 215.328 49.2172 214.699 49.5852C214.086 49.9379 213.595 50.4362 213.227 51.0802C212.874 51.7242 212.698 52.4679 212.698 53.3112C212.698 54.1546 212.874 54.9059 213.227 55.5652C213.58 56.2092 214.07 56.7152 214.699 57.0832C215.328 57.4359 216.025 57.6122 216.792 57.6122Z" fill="black"/>
<path d="M231.569 59.5442C230.357 59.5442 229.269 59.2759 228.303 58.7392C227.337 58.2026 226.578 57.4666 226.026 56.5312C225.489 55.5806 225.221 54.5072 225.221 53.3112C225.221 52.1152 225.489 51.0496 226.026 50.1142C226.578 49.1636 227.337 48.4276 228.303 47.9062C229.269 47.3696 230.357 47.1012 231.569 47.1012C232.78 47.1012 233.861 47.3696 234.812 47.9062C235.778 48.4276 236.529 49.1636 237.066 50.1142C237.618 51.0496 237.894 52.1152 237.894 53.3112C237.894 54.5072 237.618 55.5806 237.066 56.5312C236.529 57.4666 235.778 58.2026 234.812 58.7392C233.861 59.2759 232.78 59.5442 231.569 59.5442ZM231.569 57.6122C232.351 57.6122 233.048 57.4359 233.662 57.0832C234.29 56.7152 234.781 56.2092 235.134 55.5652C235.486 54.9059 235.663 54.1546 235.663 53.3112C235.663 52.4679 235.486 51.7242 235.134 51.0802C234.781 50.4209 234.29 49.9149 233.662 49.5622C233.048 49.2096 232.351 49.0332 231.569 49.0332C230.787 49.0332 230.081 49.2096 229.453 49.5622C228.839 49.9149 228.349 50.4209 227.981 51.0802C227.628 51.7242 227.452 52.4679 227.452 53.3112C227.452 54.1546 227.628 54.9059 227.981 55.5652C228.349 56.2092 228.839 56.7152 229.453 57.0832C230.081 57.4359 230.787 57.6122 231.569 57.6122Z" fill="black"/>
<path d="M253.389 57.4742V62.2352H251.319V59.4062H241.13V62.2352H239.037V57.4742H239.681C240.463 57.4282 241 56.8762 241.291 55.8182C241.583 54.7602 241.782 53.2652 241.889 51.3332L242.073 47.2162H251.526V57.4742H253.389ZM243.913 51.4942C243.852 53.0276 243.722 54.3002 243.522 55.3122C243.338 56.3089 242.993 57.0296 242.487 57.4742H249.318V49.1482H244.028L243.913 51.4942Z" fill="black"/>
<path d="M260.613 47.1012C262.299 47.1012 263.587 47.5152 264.477 48.3432C265.381 49.1712 265.834 50.4056 265.834 52.0462V59.4062H263.741V57.7962C263.373 58.3636 262.844 58.8006 262.154 59.1072C261.479 59.3986 260.674 59.5442 259.739 59.5442C258.374 59.5442 257.278 59.2146 256.45 58.5552C255.637 57.8959 255.231 57.0296 255.231 55.9562C255.231 54.8829 255.622 54.0242 256.404 53.3802C257.186 52.7209 258.428 52.3912 260.13 52.3912H263.626V51.9542C263.626 51.0036 263.35 50.2752 262.798 49.7692C262.246 49.2632 261.433 49.0102 260.36 49.0102C259.639 49.0102 258.934 49.1329 258.244 49.3782C257.554 49.6082 256.971 49.9226 256.496 50.3212L255.576 48.6652C256.204 48.1592 256.956 47.7759 257.83 47.5152C258.704 47.2392 259.631 47.1012 260.613 47.1012ZM260.107 57.8422C260.95 57.8422 261.678 57.6582 262.292 57.2902C262.905 56.9069 263.35 56.3702 263.626 55.6802V53.9782H260.222C258.351 53.9782 257.416 54.6069 257.416 55.8642C257.416 56.4776 257.653 56.9606 258.129 57.3132C258.604 57.6659 259.263 57.8422 260.107 57.8422Z" fill="black"/>
<path d="M280.896 54.2542H278.527V59.4062H276.319V54.2542H273.95L270.592 59.4062H267.97L272.156 53.1042L268.292 47.2162H270.638L273.927 52.3682H276.319V47.2162H278.527V52.3682H280.919L284.208 47.2162H286.577L282.713 53.1272L286.899 59.4062H284.277L280.896 54.2542Z" fill="black"/>
<path d="M289.328 47.2162H291.536V56.0942L299.011 47.2162H301.012V59.4062H298.804V50.5282L291.352 59.4062H289.328V47.2162Z" fill="black"/>
<path d="M320.56 49.1482H316.098V59.4062H313.89V49.1482H309.428V47.2162H320.56V49.1482Z" fill="black"/>
<path d="M327.499 59.5442C326.288 59.5442 325.199 59.2759 324.233 58.7392C323.267 58.2026 322.508 57.4666 321.956 56.5312C321.42 55.5806 321.151 54.5072 321.151 53.3112C321.151 52.1152 321.42 51.0496 321.956 50.1142C322.508 49.1636 323.267 48.4276 324.233 47.9062C325.199 47.3696 326.288 47.1012 327.499 47.1012C328.711 47.1012 329.792 47.3696 330.742 47.9062C331.708 48.4276 332.46 49.1636 332.996 50.1142C333.548 51.0496 333.824 52.1152 333.824 53.3112C333.824 54.5072 333.548 55.5806 332.996 56.5312C332.46 57.4666 331.708 58.2026 330.742 58.7392C329.792 59.2759 328.711 59.5442 327.499 59.5442ZM327.499 57.6122C328.281 57.6122 328.979 57.4359 329.592 57.0832C330.221 56.7152 330.712 56.2092 331.064 55.5652C331.417 54.9059 331.593 54.1546 331.593 53.3112C331.593 52.4679 331.417 51.7242 331.064 51.0802C330.712 50.4209 330.221 49.9149 329.592 49.5622C328.979 49.2096 328.281 49.0332 327.499 49.0332C326.717 49.0332 326.012 49.2096 325.383 49.5622C324.77 49.9149 324.279 50.4209 323.911 51.0802C323.559 51.7242 323.382 52.4679 323.382 53.3112C323.382 54.1546 323.559 54.9059 323.911 55.5652C324.279 56.2092 324.77 56.7152 325.383 57.0832C326.012 57.4359 326.717 57.6122 327.499 57.6122Z" fill="black"/>
<path d="M345.316 53.0812C346.895 53.4799 347.685 54.4689 347.685 56.0482C347.685 57.1216 347.279 57.9496 346.466 58.5322C345.669 59.1149 344.473 59.4062 342.878 59.4062H337.013V47.2162H342.671C344.112 47.2162 345.239 47.4922 346.052 48.0442C346.865 48.5809 347.271 49.3476 347.271 50.3442C347.271 50.9882 347.095 51.5479 346.742 52.0232C346.405 52.4832 345.929 52.8359 345.316 53.0812ZM339.175 52.4602H342.487C343.33 52.4602 343.967 52.3069 344.396 52.0002C344.841 51.6936 345.063 51.2489 345.063 50.6662C345.063 49.5009 344.204 48.9182 342.487 48.9182H339.175V52.4602ZM342.717 57.7042C343.637 57.7042 344.327 57.5586 344.787 57.2672C345.247 56.9759 345.477 56.5236 345.477 55.9102C345.477 55.2816 345.262 54.8139 344.833 54.5072C344.419 54.2006 343.76 54.0472 342.855 54.0472H339.175V57.7042H342.717Z" fill="black"/>
<path d="M355.488 47.1012C357.174 47.1012 358.462 47.5152 359.352 48.3432C360.256 49.1712 360.709 50.4056 360.709 52.0462V59.4062H358.616V57.7962C358.248 58.3636 357.719 58.8006 357.029 59.1072C356.354 59.3986 355.549 59.5442 354.614 59.5442C353.249 59.5442 352.153 59.2146 351.325 58.5552C350.512 57.8959 350.106 57.0296 350.106 55.9562C350.106 54.8829 350.497 54.0242 351.279 53.3802C352.061 52.7209 353.303 52.3912 355.005 52.3912H358.501V51.9542C358.501 51.0036 358.225 50.2752 357.673 49.7692C357.121 49.2632 356.308 49.0102 355.235 49.0102C354.514 49.0102 353.809 49.1329 353.119 49.3782C352.429 49.6082 351.846 49.9226 351.371 50.3212L350.451 48.6652C351.079 48.1592 351.831 47.7759 352.705 47.5152C353.579 47.2392 354.506 47.1012 355.488 47.1012ZM354.982 57.8422C355.825 57.8422 356.553 57.6582 357.167 57.2902C357.78 56.9069 358.225 56.3702 358.501 55.6802V53.9782H355.097C353.226 53.9782 352.291 54.6069 352.291 55.8642C352.291 56.4776 352.528 56.9606 353.004 57.3132C353.479 57.6659 354.138 57.8422 354.982 57.8422Z" fill="black"/>
<path d="M371.148 47.1012C372.328 47.1012 373.386 47.3619 374.322 47.8832C375.257 48.4046 375.985 49.1329 376.507 50.0682C377.043 51.0036 377.312 52.0846 377.312 53.3112C377.312 54.5379 377.043 55.6266 376.507 56.5772C375.985 57.5126 375.257 58.2409 374.322 58.7622C373.386 59.2836 372.328 59.5442 371.148 59.5442C370.274 59.5442 369.469 59.3756 368.733 59.0382C368.012 58.7009 367.399 58.2102 366.893 57.5662V63.8682H364.685V47.2162H366.801V49.1482C367.291 48.4736 367.912 47.9676 368.664 47.6302C369.415 47.2776 370.243 47.1012 371.148 47.1012ZM370.964 57.6122C371.746 57.6122 372.443 57.4359 373.057 57.0832C373.685 56.7152 374.176 56.2092 374.529 55.5652C374.897 54.9059 375.081 54.1546 375.081 53.3112C375.081 52.4679 374.897 51.7242 374.529 51.0802C374.176 50.4209 373.685 49.9149 373.057 49.5622C372.443 49.2096 371.746 49.0332 370.964 49.0332C370.197 49.0332 369.499 49.2172 368.871 49.5852C368.257 49.9379 367.767 50.4362 367.399 51.0802C367.046 51.7242 366.87 52.4679 366.87 53.3112C366.87 54.1546 367.046 54.9059 367.399 55.5652C367.751 56.2092 368.242 56.7152 368.871 57.0832C369.499 57.4359 370.197 57.6122 370.964 57.6122Z" fill="black"/>
<path d="M385.741 59.5442C384.529 59.5442 383.441 59.2759 382.475 58.7392C381.509 58.2026 380.75 57.4666 380.198 56.5312C379.661 55.5806 379.393 54.5072 379.393 53.3112C379.393 52.1152 379.661 51.0496 380.198 50.1142C380.75 49.1636 381.509 48.4276 382.475 47.9062C383.441 47.3696 384.529 47.1012 385.741 47.1012C386.952 47.1012 388.033 47.3696 388.984 47.9062C389.95 48.4276 390.701 49.1636 391.238 50.1142C391.79 51.0496 392.066 52.1152 392.066 53.3112C392.066 54.5072 391.79 55.5806 391.238 56.5312C390.701 57.4666 389.95 58.2026 388.984 58.7392C388.033 59.2759 386.952 59.5442 385.741 59.5442ZM385.741 57.6122C386.523 57.6122 387.22 57.4359 387.834 57.0832C388.462 56.7152 388.953 56.2092 389.306 55.5652C389.658 54.9059 389.835 54.1546 389.835 53.3112C389.835 52.4679 389.658 51.7242 389.306 51.0802C388.953 50.4209 388.462 49.9149 387.834 49.5622C387.22 49.2096 386.523 49.0332 385.741 49.0332C384.959 49.0332 384.253 49.2096 383.625 49.5622C383.011 49.9149 382.521 50.4209 382.153 51.0802C381.8 51.7242 381.624 52.4679 381.624 53.3112C381.624 54.1546 381.8 54.9059 382.153 55.5652C382.521 56.2092 383.011 56.7152 383.625 57.0832C384.253 57.4359 384.959 57.6122 385.741 57.6122Z" fill="black"/>
<path d="M403.557 53.0812C405.136 53.4799 405.926 54.4689 405.926 56.0482C405.926 57.1216 405.52 57.9496 404.707 58.5322C403.91 59.1149 402.714 59.4062 401.119 59.4062H395.254V47.2162H400.912C402.353 47.2162 403.48 47.4922 404.293 48.0442C405.106 48.5809 405.512 49.3476 405.512 50.3442C405.512 50.9882 405.336 51.5479 404.983 52.0232C404.646 52.4832 404.17 52.8359 403.557 53.0812ZM397.416 52.4602H400.728C401.571 52.4602 402.208 52.3069 402.637 52.0002C403.082 51.6936 403.304 51.2489 403.304 50.6662C403.304 49.5009 402.445 48.9182 400.728 48.9182H397.416V52.4602ZM400.958 57.7042C401.878 57.7042 402.568 57.5586 403.028 57.2672C403.488 56.9759 403.718 56.5236 403.718 55.9102C403.718 55.2816 403.503 54.8139 403.074 54.5072C402.66 54.2006 402.001 54.0472 401.096 54.0472H397.416V57.7042H400.958Z" fill="black"/>
<path d="M68.8327 78.2162V90.4062H66.6247V85.4842C65.306 86.0976 63.995 86.4042 62.6917 86.4042C61.1737 86.4042 60.0007 86.0516 59.1727 85.3462C58.3447 84.6409 57.9307 83.5829 57.9307 82.1722V78.2162H60.1387V82.0342C60.1387 82.8776 60.3994 83.5139 60.9207 83.9432C61.4574 84.3726 62.201 84.5872 63.1517 84.5872C64.225 84.5872 65.3827 84.3189 66.6247 83.7822V78.2162H68.8327Z" fill="black"/>
<path d="M84.1363 84.3802C84.1363 84.5489 84.121 84.7712 84.0903 85.0472H74.2003C74.3383 86.1206 74.806 86.9869 75.6033 87.6462C76.416 88.2902 77.4203 88.6122 78.6163 88.6122C80.073 88.6122 81.246 88.1216 82.1353 87.1402L83.3543 88.5662C82.8023 89.2102 82.1123 89.7009 81.2843 90.0382C80.4716 90.3756 79.5593 90.5442 78.5473 90.5442C77.2593 90.5442 76.117 90.2836 75.1203 89.7622C74.1236 89.2256 73.3493 88.4819 72.7973 87.5312C72.2606 86.5806 71.9923 85.5072 71.9923 84.3112C71.9923 83.1306 72.253 82.0649 72.7743 81.1142C73.311 80.1636 74.0393 79.4276 74.9593 78.9062C75.8946 78.3696 76.945 78.1012 78.1103 78.1012C79.2756 78.1012 80.3106 78.3696 81.2153 78.9062C82.1353 79.4276 82.8483 80.1636 83.3543 81.1142C83.8756 82.0649 84.1363 83.1536 84.1363 84.3802ZM78.1103 79.9642C77.0523 79.9642 76.163 80.2862 75.4423 80.9302C74.737 81.5742 74.323 82.4176 74.2003 83.4602H82.0203C81.8976 82.4329 81.476 81.5972 80.7553 80.9532C80.05 80.2939 79.1683 79.9642 78.1103 79.9642Z" fill="black"/>
<path d="M94.0247 78.1012C95.2054 78.1012 96.2634 78.3619 97.1987 78.8832C98.134 79.4046 98.8624 80.1329 99.3837 81.0682C99.9204 82.0036 100.189 83.0846 100.189 84.3112C100.189 85.5379 99.9204 86.6266 99.3837 87.5772C98.8624 88.5126 98.134 89.2409 97.1987 89.7622C96.2634 90.2836 95.2054 90.5442 94.0247 90.5442C93.1507 90.5442 92.3457 90.3756 91.6097 90.0382C90.889 89.7009 90.2757 89.2102 89.7697 88.5662V94.8682H87.5617V78.2162H89.6777V80.1482C90.1684 79.4736 90.7894 78.9676 91.5407 78.6302C92.292 78.2776 93.12 78.1012 94.0247 78.1012ZM93.8407 88.6122C94.6227 88.6122 95.3204 88.4359 95.9337 88.0832C96.5624 87.7152 97.053 87.2092 97.4057 86.5652C97.7737 85.9059 97.9577 85.1546 97.9577 84.3112C97.9577 83.4679 97.7737 82.7242 97.4057 82.0802C97.053 81.4209 96.5624 80.9149 95.9337 80.5622C95.3204 80.2096 94.6227 80.0332 93.8407 80.0332C93.074 80.0332 92.3764 80.2172 91.7477 80.5852C91.1344 80.9379 90.6437 81.4362 90.2757 82.0802C89.923 82.7242 89.7467 83.4679 89.7467 84.3112C89.7467 85.1546 89.923 85.9059 90.2757 86.5652C90.6284 87.2092 91.119 87.7152 91.7477 88.0832C92.3764 88.4359 93.074 88.6122 93.8407 88.6122Z" fill="black"/>
<path d="M114.414 84.3802C114.414 84.5489 114.398 84.7712 114.368 85.0472H104.478C104.616 86.1206 105.083 86.9869 105.881 87.6462C106.693 88.2902 107.698 88.6122 108.894 88.6122C110.35 88.6122 111.523 88.1216 112.413 87.1402L113.632 88.5662C113.08 89.2102 112.39 89.7009 111.562 90.0382C110.749 90.3756 109.837 90.5442 108.825 90.5442C107.537 90.5442 106.394 90.2836 105.398 89.7622C104.401 89.2256 103.627 88.4819 103.075 87.5312C102.538 86.5806 102.27 85.5072 102.27 84.3112C102.27 83.1306 102.53 82.0649 103.052 81.1142C103.588 80.1636 104.317 79.4276 105.237 78.9062C106.172 78.3696 107.222 78.1012 108.388 78.1012C109.553 78.1012 110.588 78.3696 111.493 78.9062C112.413 79.4276 113.126 80.1636 113.632 81.1142C114.153 82.0649 114.414 83.1536 114.414 84.3802ZM108.388 79.9642C107.33 79.9642 106.44 80.2862 105.72 80.9302C105.014 81.5742 104.6 82.4176 104.478 83.4602H112.298C112.175 82.4329 111.753 81.5972 111.033 80.9532C110.327 80.2939 109.446 79.9642 108.388 79.9642Z" fill="black"/>
<path d="M124.171 84.0582C124.983 84.2729 125.612 84.6179 126.057 85.0932C126.501 85.5686 126.724 86.1589 126.724 86.8642C126.724 87.5849 126.478 88.2289 125.988 88.7962C125.497 89.3482 124.815 89.7852 123.941 90.1072C123.082 90.4139 122.116 90.5672 121.043 90.5672C120.138 90.5672 119.249 90.4522 118.375 90.2222C117.516 89.9769 116.749 89.6319 116.075 89.1872L116.742 87.5082C117.324 87.8762 117.991 88.1676 118.743 88.3822C119.494 88.5816 120.253 88.6812 121.02 88.6812C122.062 88.6812 122.89 88.5049 123.504 88.1522C124.132 87.7842 124.447 87.2936 124.447 86.6802C124.447 86.1129 124.194 85.6759 123.688 85.3692C123.197 85.0626 122.499 84.9092 121.595 84.9092H119.364V83.3222H121.434C122.262 83.3222 122.913 83.1766 123.389 82.8852C123.864 82.5939 124.102 82.1952 124.102 81.6892C124.102 81.1372 123.818 80.7079 123.251 80.4012C122.699 80.0946 121.947 79.9412 120.997 79.9412C119.785 79.9412 118.505 80.2556 117.156 80.8842L116.558 79.1822C118.045 78.4309 119.601 78.0552 121.227 78.0552C122.208 78.0552 123.09 78.1932 123.872 78.4692C124.654 78.7452 125.267 79.1362 125.712 79.6422C126.156 80.1482 126.379 80.7232 126.379 81.3672C126.379 81.9652 126.179 82.5019 125.781 82.9772C125.382 83.4526 124.845 83.8129 124.171 84.0582Z" fill="black"/>
<path d="M140.213 74.3062V90.4062H137.936V76.3072H134.302V74.3062H140.213Z" fill="black"/>
<path d="M157.742 86.4502H154.683V90.4062H152.452V86.4502H143.505V84.8402L151.739 74.3062H154.223L146.334 84.4722H152.521V80.9762H154.683V84.4722H157.742V86.4502Z" fill="black"/>
<path d="M178.729 88.4742V93.2352H176.659V90.4062H166.47V93.2352H164.377V88.4742H165.021C165.803 88.4282 166.34 87.8762 166.631 86.8182C166.923 85.7602 167.122 84.2652 167.229 82.3332L167.413 78.2162H176.866V88.4742H178.729ZM169.253 82.4942C169.192 84.0276 169.062 85.3002 168.862 86.3122C168.678 87.3089 168.333 88.0296 167.827 88.4742H174.658V80.1482H169.368L169.253 82.4942Z" fill="black"/>
<path d="M181.606 78.2162H183.814V83.3912H190.76V78.2162H192.968V90.4062H190.76V85.3002H183.814V90.4062H181.606V78.2162Z" fill="black"/>
<path d="M208.278 84.3802C208.278 84.5489 208.263 84.7712 208.232 85.0472H198.342C198.48 86.1206 198.948 86.9869 199.745 87.6462C200.558 88.2902 201.562 88.6122 202.758 88.6122C204.215 88.6122 205.388 88.1216 206.277 87.1402L207.496 88.5662C206.944 89.2102 206.254 89.7009 205.426 90.0382C204.613 90.3756 203.701 90.5442 202.689 90.5442C201.401 90.5442 200.259 90.2836 199.262 89.7622C198.265 89.2256 197.491 88.4819 196.939 87.5312C196.402 86.5806 196.134 85.5072 196.134 84.3112C196.134 83.1306 196.395 82.0649 196.916 81.1142C197.453 80.1636 198.181 79.4276 199.101 78.9062C200.036 78.3696 201.087 78.1012 202.252 78.1012C203.417 78.1012 204.452 78.3696 205.357 78.9062C206.277 79.4276 206.99 80.1636 207.496 81.1142C208.017 82.0649 208.278 83.1536 208.278 84.3802ZM202.252 79.9642C201.194 79.9642 200.305 80.2862 199.584 80.9302C198.879 81.5742 198.465 82.4176 198.342 83.4602H206.162C206.039 82.4329 205.618 81.5972 204.897 80.9532C204.192 80.2939 203.31 79.9642 202.252 79.9642Z" fill="black"/>
<path d="M211.703 78.2162H213.911V87.0942L221.386 78.2162H223.387V90.4062H221.179V81.5282L213.727 90.4062H211.703V78.2162ZM217.407 76.6292C216.273 76.6292 215.391 76.3609 214.762 75.8242C214.134 75.2722 213.812 74.4826 213.796 73.4552H215.291C215.307 74.0226 215.498 74.4826 215.866 74.8352C216.25 75.1726 216.756 75.3412 217.384 75.3412C218.013 75.3412 218.519 75.1726 218.902 74.8352C219.286 74.4826 219.485 74.0226 219.5 73.4552H221.041C221.026 74.4826 220.696 75.2722 220.052 75.8242C219.408 76.3609 218.527 76.6292 217.407 76.6292Z" fill="black"/>
<path d="M228.179 87.3932C228.608 87.3932 228.961 87.5466 229.237 87.8532C229.528 88.1446 229.674 88.5126 229.674 88.9572C229.674 89.1872 229.643 89.4096 229.582 89.6242C229.536 89.8389 229.436 90.1686 229.283 90.6132L228.202 93.8102H226.753L227.604 90.3832C227.313 90.2759 227.075 90.0996 226.891 89.8542C226.722 89.5936 226.638 89.2946 226.638 88.9572C226.638 88.4972 226.784 88.1216 227.075 87.8302C227.366 87.5389 227.734 87.3932 228.179 87.3932Z" fill="black"/>
<path d="M239.061 78.2162H241.269V83.3912H248.215V78.2162H250.423V90.4062H248.215V85.3002H241.269V90.4062H239.061V78.2162Z" fill="black"/>
<path d="M265.595 78.2162L259.684 91.6252C259.163 92.8672 258.549 93.7412 257.844 94.2472C257.154 94.7532 256.318 95.0062 255.337 95.0062C254.739 95.0062 254.156 94.9066 253.589 94.7072C253.037 94.5232 252.577 94.2472 252.209 93.8792L253.152 92.2232C253.781 92.8212 254.509 93.1202 255.337 93.1202C255.874 93.1202 256.318 92.9746 256.671 92.6832C257.039 92.4072 257.369 91.9242 257.66 91.2342L258.051 90.3832L252.669 78.2162H254.969L259.224 87.9682L263.433 78.2162H265.595Z" fill="black"/>
<path d="M278.245 85.2542H275.876V90.4062H273.668V85.2542H271.299L267.941 90.4062H265.319L269.505 84.1042L265.641 78.2162H267.987L271.276 83.3682H273.668V78.2162H275.876V83.3682H278.268L281.557 78.2162H283.926L280.062 84.1272L284.248 90.4062H281.626L278.245 85.2542Z" fill="black"/>
<path d="M297.291 84.3802C297.291 84.5489 297.275 84.7712 297.245 85.0472H287.355C287.493 86.1206 287.96 86.9869 288.758 87.6462C289.57 88.2902 290.575 88.6122 291.771 88.6122C293.227 88.6122 294.4 88.1216 295.29 87.1402L296.509 88.5662C295.957 89.2102 295.267 89.7009 294.439 90.0382C293.626 90.3756 292.714 90.5442 291.702 90.5442C290.414 90.5442 289.271 90.2836 288.275 89.7622C287.278 89.2256 286.504 88.4819 285.952 87.5312C285.415 86.5806 285.147 85.5072 285.147 84.3112C285.147 83.1306 285.407 82.0649 285.929 81.1142C286.465 80.1636 287.194 79.4276 288.114 78.9062C289.049 78.3696 290.099 78.1012 291.265 78.1012C292.43 78.1012 293.465 78.3696 294.37 78.9062C295.29 79.4276 296.003 80.1636 296.509 81.1142C297.03 82.0649 297.291 83.1536 297.291 84.3802ZM291.265 79.9642C290.207 79.9642 289.317 80.2862 288.597 80.9302C287.891 81.5742 287.477 82.4176 287.355 83.4602H295.175C295.052 82.4329 294.63 81.5972 293.91 80.9532C293.204 80.2939 292.323 79.9642 291.265 79.9642Z" fill="black"/>
<path d="M300.716 78.2162H302.924V83.3912H309.87V78.2162H312.078V90.4062H309.87V85.3002H302.924V90.4062H300.716V78.2162Z" fill="black"/>
<path d="M333.013 78.2162V90.4062H330.805V80.1482H325.561L325.423 82.8622C325.346 84.5029 325.201 85.8752 324.986 86.9792C324.771 88.0679 324.419 88.9419 323.928 89.6012C323.437 90.2606 322.755 90.5902 321.881 90.5902C321.482 90.5902 321.03 90.5212 320.524 90.3832L320.662 88.5202C320.861 88.5662 321.045 88.5892 321.214 88.5892C321.827 88.5892 322.287 88.3209 322.594 87.7842C322.901 87.2476 323.1 86.6112 323.192 85.8752C323.284 85.1392 323.368 84.0889 323.445 82.7242L323.652 78.2162H333.013Z" fill="black"/>
<path d="M348.299 84.3802C348.299 84.5489 348.284 84.7712 348.253 85.0472H338.363C338.501 86.1206 338.969 86.9869 339.766 87.6462C340.579 88.2902 341.583 88.6122 342.779 88.6122C344.236 88.6122 345.409 88.1216 346.298 87.1402L347.517 88.5662C346.965 89.2102 346.275 89.7009 345.447 90.0382C344.635 90.3756 343.722 90.5442 342.71 90.5442C341.422 90.5442 340.28 90.2836 339.283 89.7622C338.287 89.2256 337.512 88.4819 336.96 87.5312C336.424 86.5806 336.155 85.5072 336.155 84.3112C336.155 83.1306 336.416 82.0649 336.937 81.1142C337.474 80.1636 338.202 79.4276 339.122 78.9062C340.058 78.3696 341.108 78.1012 342.273 78.1012C343.439 78.1012 344.474 78.3696 345.378 78.9062C346.298 79.4276 347.011 80.1636 347.517 81.1142C348.039 82.0649 348.299 83.1536 348.299 84.3802ZM342.273 79.9642C341.215 79.9642 340.326 80.2862 339.605 80.9302C338.9 81.5742 338.486 82.4176 338.363 83.4602H346.183C346.061 82.4329 345.639 81.5972 344.918 80.9532C344.213 80.2939 343.331 79.9642 342.273 79.9642Z" fill="black"/>
<path d="M351.725 78.2162H353.933V83.3912H360.879V78.2162H363.087V90.4062H360.879V85.3002H353.933V90.4062H351.725V78.2162Z" fill="black"/>
<path d="M379.777 88.4742V93.2352H377.707V90.4062H367.518V93.2352H365.425V88.4742H366.069C366.851 88.4282 367.388 87.8762 367.679 86.8182C367.97 85.7602 368.17 84.2652 368.277 82.3332L368.461 78.2162H377.914V88.4742H379.777ZM370.301 82.4942C370.24 84.0276 370.109 85.3002 369.91 86.3122C369.726 87.3089 369.381 88.0296 368.875 88.4742H375.706V80.1482H370.416L370.301 82.4942Z" fill="black"/>
<path d="M387.874 90.5442C386.663 90.5442 385.574 90.2759 384.608 89.7392C383.642 89.2026 382.883 88.4666 382.331 87.5312C381.795 86.5806 381.526 85.5072 381.526 84.3112C381.526 83.1152 381.795 82.0496 382.331 81.1142C382.883 80.1636 383.642 79.4276 384.608 78.9062C385.574 78.3696 386.663 78.1012 387.874 78.1012C389.086 78.1012 390.167 78.3696 391.117 78.9062C392.083 79.4276 392.835 80.1636 393.371 81.1142C393.923 82.0496 394.199 83.1152 394.199 84.3112C394.199 85.5072 393.923 86.5806 393.371 87.5312C392.835 88.4666 392.083 89.2026 391.117 89.7392C390.167 90.2759 389.086 90.5442 387.874 90.5442ZM387.874 88.6122C388.656 88.6122 389.354 88.4359 389.967 88.0832C390.596 87.7152 391.087 87.2092 391.439 86.5652C391.792 85.9059 391.968 85.1546 391.968 84.3112C391.968 83.4679 391.792 82.7242 391.439 82.0802C391.087 81.4209 390.596 80.9149 389.967 80.5622C389.354 80.2096 388.656 80.0332 387.874 80.0332C387.092 80.0332 386.387 80.2096 385.758 80.5622C385.145 80.9149 384.654 81.4209 384.286 82.0802C383.934 82.7242 383.757 83.4679 383.757 84.3112C383.757 85.1546 383.934 85.9059 384.286 86.5652C384.654 87.2092 385.145 87.7152 385.758 88.0832C386.387 88.4359 387.092 88.6122 387.874 88.6122Z" fill="black"/>
<path d="M402.701 90.5442C401.459 90.5442 400.347 90.2759 399.366 89.7392C398.4 89.2026 397.641 88.4666 397.089 87.5312C396.537 86.5806 396.261 85.5072 396.261 84.3112C396.261 83.1152 396.537 82.0496 397.089 81.1142C397.641 80.1636 398.4 79.4276 399.366 78.9062C400.347 78.3696 401.459 78.1012 402.701 78.1012C403.805 78.1012 404.786 78.3236 405.645 78.7682C406.519 79.2129 407.194 79.8569 407.669 80.7002L405.99 81.7812C405.607 81.1986 405.131 80.7616 404.564 80.4702C403.997 80.1789 403.368 80.0332 402.678 80.0332C401.881 80.0332 401.16 80.2096 400.516 80.5622C399.887 80.9149 399.389 81.4209 399.021 82.0802C398.668 82.7242 398.492 83.4679 398.492 84.3112C398.492 85.1699 398.668 85.9289 399.021 86.5882C399.389 87.2322 399.887 87.7306 400.516 88.0832C401.16 88.4359 401.881 88.6122 402.678 88.6122C403.368 88.6122 403.997 88.4666 404.564 88.1752C405.131 87.8839 405.607 87.4469 405.99 86.8642L407.669 87.9222C407.194 88.7656 406.519 89.4172 405.645 89.8772C404.786 90.3219 403.805 90.5442 402.701 90.5442Z" fill="black"/>
</g>
<defs>
<filter id="filter0_b_228_50" x="-8" y="-8" width="484.964" height="186.533" filterUnits="userSpaceOnUse" color-interpolation-filters="sRGB">
<feFlood flood-opacity="0" result="BackgroundImageFix"/>
<feGaussianBlur in="BackgroundImageFix" stdDeviation="4"/>
<feComposite in2="SourceAlpha" operator="in" result="effect1_backgroundBlur_228_50"/>
<feBlend mode="normal" in="SourceGraphic" in2="effect1_backgroundBlur_228_50" result="shape"/>
</filter>
</defs>
</svg>
