<svg width="247" height="130" viewBox="0 0 247 130" fill="none" xmlns="http://www.w3.org/2000/svg">
<g filter="url(#filter0_b_228_46)">
<rect width="246.875" height="97.1638" rx="29" fill="#206EF8"/>
<path d="M196.311 129.882L176.562 95.6767L216.059 95.6767L196.311 129.882Z" fill="#206EF8"/>
<path d="M86.159 56.9573C84.619 56.9573 83.2257 56.62 81.979 55.9453C80.747 55.256 79.779 54.3173 79.075 53.1293C78.371 51.9267 78.019 50.5773 78.019 49.0813C78.019 47.5853 78.371 46.2433 79.075 45.0553C79.779 43.8527 80.7544 42.914 82.001 42.2393C83.2477 41.55 84.641 41.2053 86.181 41.2053C87.3837 41.2053 88.4837 41.4107 89.481 41.8213C90.4784 42.2173 91.329 42.8113 92.033 43.6033L90.603 44.9893C89.4444 43.772 87.9997 43.1633 86.269 43.1633C85.125 43.1633 84.091 43.42 83.167 43.9333C82.243 44.4467 81.517 45.158 80.989 46.0673C80.4757 46.962 80.219 47.9667 80.219 49.0813C80.219 50.196 80.4757 51.208 80.989 52.1173C81.517 53.012 82.243 53.716 83.167 54.2293C84.091 54.7427 85.125 54.9993 86.269 54.9993C87.985 54.9993 89.4297 54.3833 90.603 53.1513L92.033 54.5373C91.329 55.3293 90.471 55.9307 89.459 56.3413C88.4617 56.752 87.3617 56.9573 86.159 56.9573Z" fill="white"/>
<path d="M106.054 54.9333V59.4873H104.074V56.7813H94.3284V59.4873H92.3264V54.9333H92.9424C93.6904 54.8893 94.2038 54.3613 94.4824 53.3493C94.7611 52.3373 94.9518 50.9073 95.0544 49.0593L95.2304 45.1213H104.272V54.9333H106.054ZM96.9904 49.2133C96.9318 50.68 96.8071 51.8973 96.6164 52.8653C96.4404 53.8187 96.1104 54.508 95.6264 54.9333H102.16V46.9693H97.1004L96.9904 49.2133Z" fill="white"/>
<path d="M119.344 51.0173C119.344 51.1787 119.329 51.3913 119.3 51.6553H109.84C109.972 52.682 110.419 53.5107 111.182 54.1413C111.959 54.7573 112.92 55.0653 114.064 55.0653C115.457 55.0653 116.579 54.596 117.43 53.6573L118.596 55.0213C118.068 55.6373 117.408 56.1067 116.616 56.4293C115.838 56.752 114.966 56.9133 113.998 56.9133C112.766 56.9133 111.673 56.664 110.72 56.1653C109.766 55.652 109.026 54.9407 108.498 54.0313C107.984 53.122 107.728 52.0953 107.728 50.9513C107.728 49.822 107.977 48.8027 108.476 47.8933C108.989 46.984 109.686 46.28 110.566 45.7813C111.46 45.268 112.465 45.0113 113.58 45.0113C114.694 45.0113 115.684 45.268 116.55 45.7813C117.43 46.28 118.112 46.984 118.596 47.8933C119.094 48.8027 119.344 49.844 119.344 51.0173ZM113.58 46.7933C112.568 46.7933 111.717 47.1013 111.028 47.7173C110.353 48.3333 109.957 49.14 109.84 50.1373H117.32C117.202 49.1547 116.799 48.3553 116.11 47.7393C115.435 47.1087 114.592 46.7933 113.58 46.7933Z" fill="white"/>
<path d="M132.437 45.1213V56.7813H130.325V46.9693H125.309L125.177 49.5653C125.104 51.1347 124.964 52.4473 124.759 53.5033C124.554 54.5447 124.216 55.3807 123.747 56.0113C123.278 56.642 122.625 56.9573 121.789 56.9573C121.408 56.9573 120.975 56.8913 120.491 56.7593L120.623 54.9773C120.814 55.0213 120.99 55.0433 121.151 55.0433C121.738 55.0433 122.178 54.7867 122.471 54.2733C122.764 53.76 122.955 53.1513 123.043 52.4473C123.131 51.7433 123.212 50.7387 123.285 49.4333L123.483 45.1213H132.437Z" fill="white"/>
<path d="M140.679 45.0113C142.292 45.0113 143.524 45.4073 144.375 46.1993C145.24 46.9913 145.673 48.172 145.673 49.7413V56.7813H143.671V55.2413C143.319 55.784 142.813 56.202 142.153 56.4953C141.507 56.774 140.737 56.9133 139.843 56.9133C138.537 56.9133 137.489 56.598 136.697 55.9673C135.919 55.3367 135.531 54.508 135.531 53.4813C135.531 52.4547 135.905 51.6333 136.653 51.0173C137.401 50.3867 138.589 50.0713 140.217 50.0713H143.561V49.6533C143.561 48.744 143.297 48.0473 142.769 47.5633C142.241 47.0793 141.463 46.8373 140.437 46.8373C139.747 46.8373 139.073 46.9547 138.413 47.1893C137.753 47.4093 137.195 47.71 136.741 48.0913L135.861 46.5073C136.462 46.0233 137.181 45.6567 138.017 45.4073C138.853 45.1433 139.74 45.0113 140.679 45.0113ZM140.195 55.2853C141.001 55.2853 141.698 55.1093 142.285 54.7573C142.871 54.3907 143.297 53.8773 143.561 53.2173V51.5893H140.305C138.515 51.5893 137.621 52.1907 137.621 53.3933C137.621 53.98 137.848 54.442 138.303 54.7793C138.757 55.1167 139.388 55.2853 140.195 55.2853Z" fill="white"/>
<path d="M160.014 51.0173C160.014 51.1787 159.999 51.3913 159.97 51.6553H150.51C150.642 52.682 151.089 53.5107 151.852 54.1413C152.629 54.7573 153.59 55.0653 154.734 55.0653C156.127 55.0653 157.249 54.596 158.1 53.6573L159.266 55.0213C158.738 55.6373 158.078 56.1067 157.286 56.4293C156.508 56.752 155.636 56.9133 154.668 56.9133C153.436 56.9133 152.343 56.664 151.39 56.1653C150.436 55.652 149.696 54.9407 149.168 54.0313C148.654 53.122 148.398 52.0953 148.398 50.9513C148.398 49.822 148.647 48.8027 149.146 47.8933C149.659 46.984 150.356 46.28 151.236 45.7813C152.13 45.268 153.135 45.0113 154.25 45.0113C155.364 45.0113 156.354 45.268 157.22 45.7813C158.1 46.28 158.782 46.984 159.266 47.8933C159.764 48.8027 160.014 49.844 160.014 51.0173ZM154.25 46.7933C153.238 46.7933 152.387 47.1013 151.698 47.7173C151.023 48.3333 150.627 49.14 150.51 50.1373H157.99C157.872 49.1547 157.469 48.3553 156.78 47.7393C156.105 47.1087 155.262 46.7933 154.25 46.7933Z" fill="white"/>
<path d="M176.732 45.1213V56.7813H174.818V48.2673L170.462 55.4613H169.538L165.226 48.2453V56.7813H163.29V45.1213H165.468L170.044 52.9973L174.752 45.1213H176.732Z" fill="white"/>
<path d="M180.513 41.3813H182.999L182.581 51.9193H180.909L180.513 41.3813ZM181.767 56.9133C181.356 56.9133 181.012 56.7813 180.733 56.5173C180.454 56.2387 180.315 55.9013 180.315 55.5053C180.315 55.1093 180.454 54.7793 180.733 54.5153C181.012 54.2367 181.356 54.0973 181.767 54.0973C182.178 54.0973 182.515 54.2367 182.779 54.5153C183.043 54.7793 183.175 55.1093 183.175 55.5053C183.175 55.9013 183.036 56.2387 182.757 56.5173C182.493 56.7813 182.163 56.9133 181.767 56.9133Z" fill="white"/>
</g>
<defs>
<filter id="filter0_b_228_46" x="-8" y="-8" width="262.875" height="145.882" filterUnits="userSpaceOnUse" color-interpolation-filters="sRGB">
<feFlood flood-opacity="0" result="BackgroundImageFix"/>
<feGaussianBlur in="BackgroundImageFix" stdDeviation="4"/>
<feComposite in2="SourceAlpha" operator="in" result="effect1_backgroundBlur_228_46"/>
<feBlend mode="normal" in="SourceGraphic" in2="effect1_backgroundBlur_228_46" result="shape"/>
</filter>
</defs>
</svg>
