<svg width="68" height="68" viewBox="0 0 68 68" fill="none" xmlns="http://www.w3.org/2000/svg">
<path d="M29.3203 59.9321L27.836 65.1898L26.8829 64.92L28.1319 60.4955L25.1633 59.6552L23.9142 64.0796L22.9611 63.8098L24.4454 58.5521L29.3203 59.9321Z" fill="url(#paint0_radial_295_16)"/>
<path d="M36.056 60.1916C36.5845 60.1593 37.0654 60.2471 37.4986 60.4548C37.9319 60.6625 38.2782 60.9685 38.5376 61.3728C38.8039 61.7766 38.9542 62.253 38.9883 62.8019C39.0225 63.3508 38.9327 63.8452 38.7189 64.2853C38.5116 64.7181 38.2059 65.0639 37.8017 65.3227C37.3975 65.5815 36.9311 65.7271 36.4026 65.7593C36.0113 65.7832 35.6463 65.7297 35.3074 65.5989C34.9754 65.4677 34.6872 65.2649 34.4427 64.9905L34.6183 67.8104L33.6298 67.8708L33.166 60.4196L34.1132 60.3618L34.167 61.2263C34.3679 60.911 34.6318 60.6676 34.9587 60.4962C35.2853 60.3178 35.651 60.2163 36.056 60.1916ZM36.2664 64.8999C36.6165 64.8785 36.9239 64.7805 37.1886 64.606C37.4598 64.4241 37.6653 64.1843 37.8053 63.8865C37.9517 63.5814 38.0131 63.2402 37.9896 62.8628C37.9661 62.4855 37.863 62.1578 37.6804 61.8796C37.5041 61.5943 37.2704 61.3813 36.9791 61.2406C36.6947 61.0996 36.3775 61.0397 36.0274 61.0611C35.6842 61.0821 35.377 61.1835 35.1059 61.3653C34.8411 61.5399 34.6354 61.7763 34.4886 62.0745C34.3486 62.3723 34.2904 62.7099 34.3139 63.0872C34.3374 63.4646 34.4373 63.7959 34.6135 64.0813C34.7893 64.3599 35.023 64.5729 35.3147 64.7204C35.606 64.861 35.9232 64.9208 36.2664 64.8999Z" fill="url(#paint1_radial_295_16)"/>
<path d="M46.9361 63.3427C46.4355 63.5532 45.9389 63.6315 45.4461 63.5776C44.9533 63.5237 44.5114 63.3515 44.1202 63.0609C43.7327 62.7613 43.4347 62.3644 43.2261 61.8701C43.0176 61.3759 42.9427 60.8889 43.0015 60.4091C43.0638 59.9203 43.2492 59.4843 43.5575 59.101C43.8631 58.7113 44.2662 58.4113 44.7668 58.2008C45.2674 57.9903 45.7609 57.9133 46.2474 57.9699C46.7374 58.0174 47.1763 58.191 47.5638 58.4906C47.955 58.7812 48.2548 59.1736 48.4633 59.6679C48.6718 60.1621 48.7449 60.6536 48.6825 61.1424C48.6238 61.6222 48.4416 62.0569 48.136 62.4465C47.8367 62.8335 47.4367 63.1323 46.9361 63.3427ZM46.5993 62.5444C46.9225 62.4085 47.18 62.2144 47.372 61.962C47.5677 61.7007 47.6822 61.4064 47.7157 61.079C47.7465 60.7452 47.6884 60.4041 47.5413 60.0556C47.3943 59.7071 47.1918 59.4304 46.9338 59.2256C46.6731 59.0144 46.3821 58.8905 46.0608 58.854C45.7459 58.8149 45.4268 58.8633 45.1037 58.9991C44.7805 59.135 44.5198 59.3305 44.3214 59.5855C44.1295 59.8378 44.0149 60.1321 43.9778 60.4686C43.9443 60.796 44.0011 61.1339 44.1481 61.4824C44.2951 61.8309 44.499 62.1108 44.7597 62.322C45.024 62.5241 45.315 62.648 45.6326 62.6935C45.9539 62.73 46.2761 62.6803 46.5993 62.5444Z" fill="url(#paint2_radial_295_16)"/>
<path d="M57.8279 54.8829L59.2457 56.4805L58.5515 57.0959L57.709 56.1465L54.2916 59.1752L55.1341 60.1246L54.4321 60.7467L53.0143 59.149L53.2303 58.9576C53.4789 58.7097 53.4945 58.365 53.2771 57.9233C53.0598 57.4817 52.6814 56.9208 52.1421 56.2405L50.9778 54.8043L54.1484 51.9944L57.2031 55.4367L57.8279 54.8829ZM52.8689 55.6929C53.305 56.2257 53.6402 56.6915 53.8747 57.0904C54.1098 57.4795 54.2087 57.8239 54.1714 58.1235L56.4625 56.093L53.9831 53.299L52.2089 54.8715L52.8689 55.6929Z" fill="url(#paint3_radial_295_16)"/>
<path d="M59.3395 44.4858L63.1985 49.808C63.5619 50.2908 63.7619 50.726 63.7985 51.1135C63.8386 51.495 63.7478 51.8756 63.526 52.2554C63.3908 52.4868 63.2205 52.6897 63.0151 52.8641C62.8191 53.0361 62.6082 53.1516 62.3824 53.2107L61.954 52.471C62.3277 52.3631 62.6082 52.1489 62.7953 51.8285C62.9166 51.6208 62.9606 51.4158 62.9275 51.2134C62.9037 51.0085 62.7911 50.7716 62.5896 50.5027L62.3483 50.1588L56.4182 49.4877L56.938 48.5977L61.6778 49.1583L58.8508 45.3224L59.3395 44.4858Z" fill="url(#paint4_radial_295_16)"/>
<path d="M64.131 39.8047L63.8815 40.9108L66.1358 41.4212L65.9181 42.3865L60.5843 41.179L60.8021 40.2136L63.0563 40.724L63.3103 39.5977L61.4461 37.3578L61.6797 36.322L63.7901 38.9242L67.0452 37.3887L66.7889 38.5251L64.131 39.8047Z" fill="url(#paint5_radial_295_16)"/>
<path d="M62.4023 28.6919L62.531 30.6882L67.1224 30.3977L67.1861 31.3856L62.5947 31.676L62.7234 33.6723L61.8586 33.727L61.5376 28.7466L62.4023 28.6919Z" fill="url(#paint6_radial_295_16)"/>
<path d="M65.2515 21.5831C65.4432 22.0914 65.5029 22.5906 65.4305 23.0806C65.3581 23.5706 65.1693 24.0051 64.8642 24.3843C64.5501 24.7594 64.1421 25.0412 63.6402 25.2298C63.1382 25.4184 62.6485 25.4738 62.1711 25.3961C61.6847 25.3143 61.2557 25.1118 60.8841 24.7887C60.506 24.4679 60.2211 24.0533 60.0294 23.545C59.8378 23.0367 59.7793 22.5407 59.8541 22.0572C59.92 21.5696 60.11 21.1382 60.4241 20.7631C60.7293 20.384 61.1329 20.1001 61.6348 19.9116C62.1367 19.723 62.6309 19.6696 63.1172 19.7513C63.5947 19.8291 64.0224 20.0283 64.4005 20.3491C64.7762 20.6634 65.0599 21.0747 65.2515 21.5831ZM64.4407 21.8877C64.317 21.5595 64.1326 21.2946 63.8875 21.0928C63.6336 20.887 63.3436 20.7609 63.0175 20.7144C62.685 20.6704 62.3418 20.7148 61.9878 20.8478C61.6339 20.9808 61.3497 21.172 61.1352 21.4216C60.9143 21.6735 60.7796 21.9592 60.7311 22.2786C60.6801 22.5916 60.7165 22.9122 60.8403 23.2404C60.964 23.5685 61.1496 23.8367 61.3971 24.045C61.6422 24.2467 61.9322 24.3729 62.2671 24.4233C62.5932 24.4698 62.9332 24.4265 63.2871 24.2936C63.6411 24.1606 63.9285 23.9681 64.1494 23.7162C64.3614 23.4602 64.4961 23.1745 64.5535 22.8591C64.6021 22.5397 64.5645 22.2159 64.4407 21.8877Z" fill="url(#paint7_radial_295_16)"/>
<path d="M56.8447 13.0153C56.5402 12.3512 56.664 11.7976 57.216 11.3546C57.5912 11.0536 57.9948 10.9634 58.4269 11.0841C58.8547 11.1995 59.2926 11.536 59.7408 12.0937L61.3892 14.1446L57.1282 17.564L55.538 15.5854C55.133 15.0814 54.9127 14.6099 54.8772 14.1708C54.8364 13.7361 54.9902 13.379 55.3386 13.0994C55.5637 12.9188 55.8089 12.8234 56.0742 12.8134C56.3298 12.8023 56.5866 12.8696 56.8447 13.0153ZM58.3536 15.337L57.4228 14.1788C57.1858 13.8839 56.9533 13.7044 56.7255 13.6402C56.4933 13.5708 56.2754 13.6178 56.0717 13.7812C55.6644 14.1081 55.702 14.5718 56.1847 15.1723L57.1155 16.3305L58.3536 15.337ZM59.1912 12.6274C58.9326 12.3057 58.6877 12.1052 58.4566 12.0261C58.2255 11.947 58.0028 11.9934 57.7884 12.1655C57.5686 12.3418 57.4655 12.548 57.4789 12.7842C57.4881 13.015 57.6198 13.2886 57.8741 13.6049L58.9084 14.8918L60.1866 13.866L59.1912 12.6274Z" fill="url(#paint8_radial_295_16)"/>
<path d="M50.4649 8.53191C49.8846 8.16231 49.5214 7.74987 49.3754 7.29462C49.2294 6.83936 49.3053 6.37261 49.6032 5.89435C49.9157 5.39277 50.3266 5.11041 50.836 5.04728C51.336 4.98634 51.8966 5.15341 52.5178 5.54848L54.4656 6.77404L51.5775 11.4108L50.7366 10.8869L51.7121 9.32096L50.4649 8.53191ZM46.9877 8.55153L46.1468 8.02769L49.0349 3.39095L49.8758 3.91479L46.9877 8.55153ZM52.1813 6.22532C51.8054 5.98303 51.472 5.8806 51.1812 5.91803C50.8846 5.95182 50.64 6.12327 50.4474 6.43239C50.2585 6.73567 50.2168 7.01733 50.3224 7.27735C50.4279 7.53737 50.6715 7.79035 51.0533 8.03627L52.0935 8.70856L53.227 6.88886L52.1813 6.22532Z" fill="url(#paint9_radial_295_16)"/>
<path d="M42.6345 6.67935L41.6637 6.48253L42.451 2.58205L38.3772 5.81623L37.4974 5.63786L38.5784 0.282275L39.5491 0.479091L38.7619 4.37957L42.8256 1.14336L43.7154 1.32377L42.6345 6.67935ZM39.9859 6.86814C40.4848 6.96928 40.8486 7.16577 41.0774 7.45759C41.3049 7.75614 41.3764 8.13178 41.2921 8.58449L40.6348 8.45123C40.6783 8.20061 40.6348 7.98143 40.5043 7.79368C40.3657 7.61131 40.1582 7.4921 39.8818 7.43606C39.6054 7.38003 39.3679 7.40902 39.1695 7.52306C38.9697 7.64383 38.8412 7.82816 38.7842 8.07605L38.1067 7.93869C38.2045 7.4887 38.4195 7.17115 38.7516 6.98604C39.0823 6.80766 39.4937 6.76837 39.9859 6.86814Z" fill="url(#paint10_radial_295_16)"/>
<path d="M23.1918 7.8369L21.3564 2.68719L22.2893 2.35599L23.8338 6.68952L26.0493 5.90292L25.699 4.73568C25.4844 4.03108 25.3393 3.42948 25.2638 2.93089C25.1905 2.43878 25.208 2.01665 25.316 1.66452C25.424 1.31238 25.6627 1.07076 26.0319 0.93966C26.2004 0.87986 26.4019 0.841157 26.6364 0.823556L26.8586 1.63129C26.7675 1.64175 26.6863 1.65964 26.615 1.68494C26.3559 1.77694 26.2019 1.9593 26.1532 2.23202C26.1044 2.50473 26.116 2.80345 26.1879 3.12818C26.2599 3.4529 26.3824 3.90927 26.5555 4.49728L27.1468 6.43275L23.1918 7.8369Z" fill="url(#paint11_radial_295_16)"/>
<path d="M13.8196 10.7266C13.7727 10.6673 13.7162 10.5848 13.6502 10.4791L17.1293 7.73272C16.7822 7.39331 16.3766 7.21829 15.9126 7.20767C15.4476 7.2067 15.0047 7.37228 14.5839 7.7044C14.0715 8.10891 13.7954 8.60733 13.7556 9.19965L12.93 9.03631C12.945 8.65638 13.0512 8.29209 13.2486 7.94344C13.4406 7.59905 13.7146 7.28635 14.0706 7.00532C14.5237 6.64765 14.9981 6.42216 15.4938 6.32886C15.9937 6.24096 16.473 6.28765 16.9317 6.46893C17.3851 6.65446 17.7781 6.95769 18.1109 7.37859C18.4394 7.7941 18.6442 8.24152 18.7253 8.72086C18.801 9.20445 18.7496 9.66572 18.571 10.1047C18.3913 10.5533 18.0965 10.9394 17.6865 11.263C17.2766 11.5866 16.8378 11.7796 16.3703 11.8419C15.9016 11.9139 15.4459 11.8529 15.0034 11.6589C14.5555 11.4691 14.1609 11.1583 13.8196 10.7266ZM17.1682 10.6074C17.5404 10.3136 17.7636 9.95327 17.838 9.5265C17.9069 9.10399 17.8179 8.69223 17.5709 8.29123L14.82 10.4628C15.149 10.7903 15.5298 10.9673 15.9625 10.9938C16.3941 11.03 16.796 10.9012 17.1682 10.6074Z" fill="url(#paint12_radial_295_16)"/>
<path d="M12.7916 15.8507L12.2533 16.6809L10.3051 15.4175L8.61148 18.0291L10.5597 19.2925L10.0213 20.1226L5.43225 17.1466L5.97062 16.3165L7.89282 17.563L9.58643 14.9514L7.66423 13.7049L8.2026 12.8747L12.7916 15.8507Z" fill="url(#paint13_radial_295_16)"/>
<path d="M2.63287 27.9252L0.562728 27.3991L0.790524 26.4998L2.02061 26.8124L3.14189 22.3856L1.91181 22.073L2.14213 21.1637L4.21227 21.6898L4.1414 21.9696C4.07535 22.3144 4.25631 22.6086 4.68428 22.852C5.11225 23.0955 5.74035 23.3473 6.5686 23.6074L8.33847 24.1422L7.29819 28.2492L2.83789 27.1158L2.63287 27.9252ZM6.27586 24.469C5.6159 24.2729 5.07687 24.0757 4.65877 23.8772C4.24566 23.6872 3.97027 23.4576 3.83261 23.1887L3.08087 26.1565L6.70112 27.0765L7.28327 24.7782L6.27586 24.469Z" fill="url(#paint14_radial_295_16)"/>
<path d="M6.83529 32.4338L6.9235 33.4198L2.95734 33.7697L7.22211 36.7579L7.30205 37.6514L1.85629 38.1319L1.76809 37.1459L5.73424 36.7959L1.47039 33.8181L1.38954 32.9143L6.83529 32.4338Z" fill="url(#paint15_radial_295_16)"/>
<path d="M8.3665 41.8562L8.77597 42.758L6.66255 43.7147L7.95067 46.5514L10.0641 45.5947L10.4736 46.4964L5.4953 48.7501L5.08583 47.8484L7.17106 46.9044L5.88294 44.0677L3.79771 45.0117L3.38824 44.1099L8.3665 41.8562Z" fill="url(#paint16_radial_295_16)"/>
<path d="M14.766 53.374L12.7605 51.0976L9.30897 54.1344L8.65412 53.3911L12.7557 49.7824L15.416 52.802L14.766 53.374Z" fill="url(#paint17_radial_295_16)"/>
<defs>
<radialGradient id="paint0_radial_295_16" cx="0" cy="0" r="1" gradientUnits="userSpaceOnUse" gradientTransform="translate(37.3904 94.0227) rotate(-80.5254) scale(214.505 886.909)">
<stop stop-color="#6CA1FC"/>
<stop offset="1" stop-color="#B3F6E7"/>
</radialGradient>
<radialGradient id="paint1_radial_295_16" cx="0" cy="0" r="1" gradientUnits="userSpaceOnUse" gradientTransform="translate(37.3904 94.0227) rotate(-80.5254) scale(214.505 886.909)">
<stop stop-color="#6CA1FC"/>
<stop offset="1" stop-color="#B3F6E7"/>
</radialGradient>
<radialGradient id="paint2_radial_295_16" cx="0" cy="0" r="1" gradientUnits="userSpaceOnUse" gradientTransform="translate(37.3904 94.0227) rotate(-80.5254) scale(214.505 886.909)">
<stop stop-color="#6CA1FC"/>
<stop offset="1" stop-color="#B3F6E7"/>
</radialGradient>
<radialGradient id="paint3_radial_295_16" cx="0" cy="0" r="1" gradientUnits="userSpaceOnUse" gradientTransform="translate(37.3904 94.0227) rotate(-80.5254) scale(214.505 886.909)">
<stop stop-color="#6CA1FC"/>
<stop offset="1" stop-color="#B3F6E7"/>
</radialGradient>
<radialGradient id="paint4_radial_295_16" cx="0" cy="0" r="1" gradientUnits="userSpaceOnUse" gradientTransform="translate(37.3904 94.0227) rotate(-80.5254) scale(214.505 886.909)">
<stop stop-color="#6CA1FC"/>
<stop offset="1" stop-color="#B3F6E7"/>
</radialGradient>
<radialGradient id="paint5_radial_295_16" cx="0" cy="0" r="1" gradientUnits="userSpaceOnUse" gradientTransform="translate(37.3904 94.0227) rotate(-80.5254) scale(214.505 886.909)">
<stop stop-color="#6CA1FC"/>
<stop offset="1" stop-color="#B3F6E7"/>
</radialGradient>
<radialGradient id="paint6_radial_295_16" cx="0" cy="0" r="1" gradientUnits="userSpaceOnUse" gradientTransform="translate(37.3904 94.0227) rotate(-80.5254) scale(214.505 886.909)">
<stop stop-color="#6CA1FC"/>
<stop offset="1" stop-color="#B3F6E7"/>
</radialGradient>
<radialGradient id="paint7_radial_295_16" cx="0" cy="0" r="1" gradientUnits="userSpaceOnUse" gradientTransform="translate(37.3904 94.0227) rotate(-80.5254) scale(214.505 886.909)">
<stop stop-color="#6CA1FC"/>
<stop offset="1" stop-color="#B3F6E7"/>
</radialGradient>
<radialGradient id="paint8_radial_295_16" cx="0" cy="0" r="1" gradientUnits="userSpaceOnUse" gradientTransform="translate(37.3904 94.0227) rotate(-80.5254) scale(214.505 886.909)">
<stop stop-color="#6CA1FC"/>
<stop offset="1" stop-color="#B3F6E7"/>
</radialGradient>
<radialGradient id="paint9_radial_295_16" cx="0" cy="0" r="1" gradientUnits="userSpaceOnUse" gradientTransform="translate(37.3904 94.0227) rotate(-80.5254) scale(214.505 886.909)">
<stop stop-color="#6CA1FC"/>
<stop offset="1" stop-color="#B3F6E7"/>
</radialGradient>
<radialGradient id="paint10_radial_295_16" cx="0" cy="0" r="1" gradientUnits="userSpaceOnUse" gradientTransform="translate(37.3904 94.0227) rotate(-80.5254) scale(214.505 886.909)">
<stop stop-color="#6CA1FC"/>
<stop offset="1" stop-color="#B3F6E7"/>
</radialGradient>
<radialGradient id="paint11_radial_295_16" cx="0" cy="0" r="1" gradientUnits="userSpaceOnUse" gradientTransform="translate(37.3904 94.0227) rotate(-80.5254) scale(214.505 886.909)">
<stop stop-color="#6CA1FC"/>
<stop offset="1" stop-color="#B3F6E7"/>
</radialGradient>
<radialGradient id="paint12_radial_295_16" cx="0" cy="0" r="1" gradientUnits="userSpaceOnUse" gradientTransform="translate(37.3904 94.0227) rotate(-80.5254) scale(214.505 886.909)">
<stop stop-color="#6CA1FC"/>
<stop offset="1" stop-color="#B3F6E7"/>
</radialGradient>
<radialGradient id="paint13_radial_295_16" cx="0" cy="0" r="1" gradientUnits="userSpaceOnUse" gradientTransform="translate(37.3904 94.0227) rotate(-80.5254) scale(214.505 886.909)">
<stop stop-color="#6CA1FC"/>
<stop offset="1" stop-color="#B3F6E7"/>
</radialGradient>
<radialGradient id="paint14_radial_295_16" cx="0" cy="0" r="1" gradientUnits="userSpaceOnUse" gradientTransform="translate(37.3904 94.0227) rotate(-80.5254) scale(214.505 886.909)">
<stop stop-color="#6CA1FC"/>
<stop offset="1" stop-color="#B3F6E7"/>
</radialGradient>
<radialGradient id="paint15_radial_295_16" cx="0" cy="0" r="1" gradientUnits="userSpaceOnUse" gradientTransform="translate(37.3904 94.0227) rotate(-80.5254) scale(214.505 886.909)">
<stop stop-color="#6CA1FC"/>
<stop offset="1" stop-color="#B3F6E7"/>
</radialGradient>
<radialGradient id="paint16_radial_295_16" cx="0" cy="0" r="1" gradientUnits="userSpaceOnUse" gradientTransform="translate(37.3904 94.0227) rotate(-80.5254) scale(214.505 886.909)">
<stop stop-color="#6CA1FC"/>
<stop offset="1" stop-color="#B3F6E7"/>
</radialGradient>
<radialGradient id="paint17_radial_295_16" cx="0" cy="0" r="1" gradientUnits="userSpaceOnUse" gradientTransform="translate(37.3904 94.0227) rotate(-80.5254) scale(214.505 886.909)">
<stop stop-color="#6CA1FC"/>
<stop offset="1" stop-color="#B3F6E7"/>
</radialGradient>
</defs>
</svg>
