<svg width="68" height="61" viewBox="0 0 68 61" fill="none" xmlns="http://www.w3.org/2000/svg">
<path d="M16.5 0L17.765 3.41867C19.7907 8.89306 24.1069 13.2093 29.5813 15.235L33 16.5L29.5813 17.765C24.1069 19.7907 19.7907 24.1069 17.765 29.5813L16.5 33L15.235 29.5813C13.2093 24.1069 8.89306 19.7907 3.41867 17.765L0 16.5L3.41867 15.235C8.89306 13.2093 13.2093 8.89306 15.235 3.41867L16.5 0Z" fill="white"/>
<path d="M60.5 46V46C61.7857 49.4747 64.5253 52.2143 68 53.5V53.5V53.5C64.5253 54.7857 61.7857 57.5253 60.5 61V61V61C59.2143 57.5253 56.4747 54.7857 53 53.5V53.5V53.5C56.4747 52.2143 59.2143 49.4747 60.5 46V46Z" fill="white"/>
</svg>
